<?xml version="1.0" encoding="UTF-8"?>
<!DOCTYPE svg PUBLIC "-//W3C//DTD SVG 1.1//EN" "http://www.w3.org/Graphics/SVG/1.1/DTD/svg11.dtd">
<svg version="1.2" width="210mm" height="297mm" viewBox="0 0 21000 29700" preserveAspectRatio="xMidYMid" fill-rule="evenodd" stroke-width="28.222" stroke-linejoin="round" xmlns="http://www.w3.org/2000/svg" xmlns:ooo="http://xml.openoffice.org/svg/export" xmlns:xlink="http://www.w3.org/1999/xlink" xmlns:presentation="http://sun.com/xmlns/staroffice/presentation" xmlns:smil="http://www.w3.org/2001/SMIL20/" xmlns:anim="urn:oasis:names:tc:opendocument:xmlns:animation:1.0" xml:space="preserve">
 <defs class="ClipPathGroup">
  <clipPath id="presentation_clip_path" clipPathUnits="userSpaceOnUse">
   <rect x="0" y="0" width="21000" height="29700"/>
  </clipPath>
  <clipPath id="presentation_clip_path_shrink" clipPathUnits="userSpaceOnUse">
   <rect x="21" y="29" width="20958" height="29641"/>
  </clipPath>
 </defs>
 <defs class="TextShapeIndex">
  <g ooo:slide="id1" ooo:id-list="id3 id4 id5 id6 id7 id8 id9"/>
 </defs>
 <defs class="EmbeddedBulletChars">
  <g id="bullet-char-template-57356" transform="scale(0.00048828125,-0.00048828125)">
   <path d="M 580,1141 L 1163,571 580,0 -4,571 580,1141 Z"/>
  </g>
  <g id="bullet-char-template-57354" transform="scale(0.00048828125,-0.00048828125)">
   <path d="M 8,1128 L 1137,1128 1137,0 8,0 8,1128 Z"/>
  </g>
  <g id="bullet-char-template-10146" transform="scale(0.00048828125,-0.00048828125)">
   <path d="M 174,0 L 602,739 174,1481 1456,739 174,0 Z M 1358,739 L 309,1346 659,739 1358,739 Z"/>
  </g>
  <g id="bullet-char-template-10132" transform="scale(0.00048828125,-0.00048828125)">
   <path d="M 2015,739 L 1276,0 717,0 1260,543 174,543 174,936 1260,936 717,1481 1274,1481 2015,739 Z"/>
  </g>
  <g id="bullet-char-template-10007" transform="scale(0.00048828125,-0.00048828125)">
   <path d="M 0,-2 C -7,14 -16,27 -25,37 L 356,567 C 262,823 215,952 215,954 215,979 228,992 255,992 264,992 276,990 289,987 310,991 331,999 354,1012 L 381,999 492,748 772,1049 836,1024 860,1049 C 881,1039 901,1025 922,1006 886,937 835,863 770,784 769,783 710,716 594,584 L 774,223 C 774,196 753,168 711,139 L 727,119 C 717,90 699,76 672,76 641,76 570,178 457,381 L 164,-76 C 142,-110 111,-127 72,-127 30,-127 9,-110 8,-76 1,-67 -2,-52 -2,-32 -2,-23 -1,-13 0,-2 Z"/>
  </g>
  <g id="bullet-char-template-10004" transform="scale(0.00048828125,-0.00048828125)">
   <path d="M 285,-33 C 182,-33 111,30 74,156 52,228 41,333 41,471 41,549 55,616 82,672 116,743 169,778 240,778 293,778 328,747 346,684 L 369,508 C 377,444 397,411 428,410 L 1163,1116 C 1174,1127 1196,1133 1229,1133 1271,1133 1292,1118 1292,1087 L 1292,965 C 1292,929 1282,901 1262,881 L 442,47 C 390,-6 338,-33 285,-33 Z"/>
  </g>
  <g id="bullet-char-template-9679" transform="scale(0.00048828125,-0.00048828125)">
   <path d="M 813,0 C 632,0 489,54 383,161 276,268 223,411 223,592 223,773 276,916 383,1023 489,1130 632,1184 813,1184 992,1184 1136,1130 1245,1023 1353,916 1407,772 1407,592 1407,412 1353,268 1245,161 1136,54 992,0 813,0 Z"/>
  </g>
  <g id="bullet-char-template-8226" transform="scale(0.00048828125,-0.00048828125)">
   <path d="M 346,457 C 273,457 209,483 155,535 101,586 74,649 74,723 74,796 101,859 155,911 209,963 273,989 346,989 419,989 480,963 531,910 582,859 608,796 608,723 608,648 583,586 532,535 482,483 420,457 346,457 Z"/>
  </g>
  <g id="bullet-char-template-8211" transform="scale(0.00048828125,-0.00048828125)">
   <path d="M -4,459 L 1135,459 1135,606 -4,606 -4,459 Z"/>
  </g>
  <g id="bullet-char-template-61548" transform="scale(0.00048828125,-0.00048828125)">
   <path d="M 173,740 C 173,903 231,1043 346,1159 462,1274 601,1332 765,1332 928,1332 1067,1274 1183,1159 1299,1043 1357,903 1357,740 1357,577 1299,437 1183,322 1067,206 928,148 765,148 601,148 462,206 346,322 231,437 173,577 173,740 Z"/>
  </g>
 </defs>
 <g>
  <g id="id2" class="Master_Slide">
   <g id="bg-id2" class="Background"/>
   <g id="bo-id2" class="BackgroundObjects"/>
  </g>
 </g>
 <g class="SlideGroup">
  <g>
   <g id="container-id1">
    <g id="id1" class="Slide" clip-path="url(#presentation_clip_path)">
     <g class="Page">
      <g class="com.sun.star.drawing.CustomShape">
       <g id="id3">
        <rect class="BoundingBox" stroke="none" fill="none" x="8768" y="8513" width="4278" height="4279"/>
        <path fill="rgb(255,255,255)" stroke="none" d="M 12939,10652 C 12939,11009 12845,11360 12667,11669 12488,11978 12232,12234 11923,12413 11614,12591 11263,12685 10906,12685 10550,12685 10199,12591 9890,12413 9581,12234 9325,11978 9146,11669 8968,11360 8874,11009 8874,10653 8874,10296 8968,9945 9146,9636 9325,9327 9581,9071 9890,8892 10199,8714 10550,8620 10906,8620 11263,8620 11614,8714 11923,8892 12232,9071 12488,9327 12667,9636 12845,9945 12939,10296 12939,10652 L 12939,10652 Z"/>
        <path fill="none" stroke="rgb(255,0,0)" stroke-width="212" stroke-linejoin="round" d="M 12939,10652 C 12939,11009 12845,11360 12667,11669 12488,11978 12232,12234 11923,12413 11614,12591 11263,12685 10906,12685 10550,12685 10199,12591 9890,12413 9581,12234 9325,11978 9146,11669 8968,11360 8874,11009 8874,10653 8874,10296 8968,9945 9146,9636 9325,9327 9581,9071 9890,8892 10199,8714 10550,8620 10906,8620 11263,8620 11614,8714 11923,8892 12232,9071 12488,9327 12667,9636 12845,9945 12939,10296 12939,10652 L 12939,10652 Z"/>
       </g>
      </g>
      <g class="com.sun.star.drawing.LineShape">
       <g id="id4">
        <rect class="BoundingBox" stroke="none" fill="none" x="3688" y="10546" width="5293" height="213"/>
        <path fill="none" stroke="rgb(255,0,0)" stroke-width="212" stroke-linejoin="round" d="M 8874,10652 L 7602,10652"/>
        <path fill="none" stroke="rgb(255,0,0)" stroke-width="212" stroke-linejoin="round" d="M 6966,10652 L 5694,10652"/>
        <path fill="none" stroke="rgb(255,0,0)" stroke-width="212" stroke-linejoin="round" d="M 5058,10652 L 3794,10652"/>
       </g>
      </g>
      <g class="com.sun.star.drawing.LineShape">
       <g id="id5">
        <rect class="BoundingBox" stroke="none" fill="none" x="3688" y="9530" width="213" height="1356"/>
        <path fill="none" stroke="rgb(255,0,0)" stroke-width="212" stroke-linejoin="round" d="M 3794,10779 L 3794,9636"/>
       </g>
      </g>
      <g class="com.sun.star.drawing.LineShape">
       <g id="id6">
        <rect class="BoundingBox" stroke="none" fill="none" x="3688" y="9454" width="1885" height="619"/>
        <path fill="none" stroke="rgb(255,0,0)" stroke-width="212" stroke-linejoin="round" d="M 3794,9763 L 4686,9763"/>
        <path fill="rgb(255,0,0)" stroke="none" d="M 5572,9763 L 4645,9454 4645,10072 5572,9763 Z"/>
       </g>
      </g>
      <g class="com.sun.star.drawing.LineShape">
       <g id="id7">
        <rect class="BoundingBox" stroke="none" fill="none" x="12832" y="10546" width="5294" height="221"/>
        <path fill="none" stroke="rgb(255,0,0)" stroke-width="212" stroke-linejoin="round" d="M 12938,10660 L 14210,10658"/>
        <path fill="none" stroke="rgb(255,0,0)" stroke-width="212" stroke-linejoin="round" d="M 14846,10657 L 16118,10655"/>
        <path fill="none" stroke="rgb(255,0,0)" stroke-width="212" stroke-linejoin="round" d="M 16754,10654 L 18018,10652"/>
       </g>
      </g>
      <g class="com.sun.star.drawing.LineShape">
       <g id="id8">
        <rect class="BoundingBox" stroke="none" fill="none" x="17912" y="10419" width="215" height="1357"/>
        <path fill="none" stroke="rgb(255,0,0)" stroke-width="212" stroke-linejoin="round" d="M 18018,10525 L 18020,11668"/>
       </g>
      </g>
      <g class="com.sun.star.drawing.LineShape">
       <g id="id9">
        <rect class="BoundingBox" stroke="none" fill="none" x="16241" y="11233" width="1886" height="620"/>
        <path fill="none" stroke="rgb(255,0,0)" stroke-width="212" stroke-linejoin="round" d="M 18020,11541 L 17127,11543"/>
        <path fill="rgb(255,0,0)" stroke="none" d="M 16242,11544 L 17169,11852 17168,11234 16242,11544 Z"/>
       </g>
      </g>
     </g>
    </g>
   </g>
  </g>
 </g>
</svg>