<?xml version="1.0" encoding="UTF-8" standalone="no"?>
<svg
   xmlns:dc="http://purl.org/dc/elements/1.1/"
   xmlns:cc="http://creativecommons.org/ns#"
   xmlns:rdf="http://www.w3.org/1999/02/22-rdf-syntax-ns#"
   xmlns:svg="http://www.w3.org/2000/svg"
   xmlns="http://www.w3.org/2000/svg"
   xmlns:sodipodi="http://sodipodi.sourceforge.net/DTD/sodipodi-0.dtd"
   xmlns:inkscape="http://www.inkscape.org/namespaces/inkscape"
   height="99.254234"
   width="66.847458"
   version="1.1"
   id="svg8"
   sodipodi:docname="12859806831557740362_.svg"
   inkscape:version="0.92.5 (2060ec1f9f, 2020-04-08)">
  <metadata
     id="metadata14">
    <rdf:RDF>
      <cc:Work
         rdf:about="">
        <dc:format>image/svg+xml</dc:format>
        <dc:type
           rdf:resource="http://purl.org/dc/dcmitype/StillImage" />
        <dc:title></dc:title>
      </cc:Work>
    </rdf:RDF>
  </metadata>
  <defs
     id="defs12" />
  <sodipodi:namedview
     pagecolor="#ffffff"
     bordercolor="#666666"
     borderopacity="1"
     objecttolerance="10"
     gridtolerance="10"
     guidetolerance="10"
     inkscape:pageopacity="0"
     inkscape:pageshadow="2"
     inkscape:window-width="1920"
     inkscape:window-height="960"
     id="namedview10"
     showgrid="false"
     fit-margin-top="0"
     fit-margin-left="0"
     fit-margin-right="0"
     fit-margin-bottom="0"
     inkscape:zoom="3.4766083"
     inkscape:cx="31.836716"
     inkscape:cy="55.42646"
     inkscape:window-x="1920"
     inkscape:window-y="27"
     inkscape:window-maximized="1"
     inkscape:current-layer="svg8" />
  <g
     id="g6">
    <path
       d="m 12.048682,1028.4328 c -4.4183005,0 -8.0000005,3.5817 -8.0000005,8 0,1.421 0.3816,2.75 1.0312,3.906 0.1079,0.192 0.221,0.381 0.3438,0.563 l 6.6250005,11.531 6.625,-11.531 c 0.102,-0.151 0.19,-0.311 0.281,-0.469 l 0.063,-0.094 c 0.649,-1.156 1.031,-2.485 1.031,-3.906 0,-4.4183 -3.582,-8 -8,-8 z m 0,4 c 2.209,0 4,1.7909 4,4 0,2.209 -1.791,4 -4,4 -2.2091005,0 -4.0000005,-1.791 -4.0000005,-4 0,-2.2091 1.7909,-4 4.0000005,-4 z"
       id="path2"
       inkscape:connector-curvature="0"
       style="fill:#e74c3c" />
    <path
       d="m 12,1031.2033 c -2.7613995,0 -4.9999995,2.2386 -4.9999995,5 0,2.761 2.2386,5 4.9999995,5 2.761,0 5,-2.239 5,-5 0,-2.7614 -2.239,-5 -5,-5 z m 0,2 c 1.657,0 3,1.3431 3,3 0,1.6569 -1.343,3 -3,3 -1.657,0 -2.9999995,-1.3431 -2.9999995,-3 0,-1.6569 1.3429995,-3 2.9999995,-3 z"
       id="path4"
       inkscape:connector-curvature="0"
       style="fill:#c0392b" />
  </g>
</svg>
